<?xml version="1.0" encoding="UTF-8" standalone="no"?>
<svg
   width="32"
   height="32"
   viewBox="0 0 32 32"
   fill="none"
   version="1.1"
   id="svg18"
   sodipodi:docname="maximize.svg"
   inkscape:version="1.1.1 (3bf5ae0d25, 2021-09-20, custom)"
   xmlns:inkscape="http://www.inkscape.org/namespaces/inkscape"
   xmlns:sodipodi="http://sodipodi.sourceforge.net/DTD/sodipodi-0.dtd"
   xmlns="http://www.w3.org/2000/svg"
   xmlns:svg="http://www.w3.org/2000/svg">
  <sodipodi:namedview
     id="namedview20"
     pagecolor="#ffffff"
     bordercolor="#666666"
     borderopacity="1.0"
     inkscape:pageshadow="2"
     inkscape:pageopacity="0.0"
     inkscape:pagecheckerboard="0"
     showgrid="false"
     inkscape:zoom="22.71875"
     inkscape:cx="14.503439"
     inkscape:cy="14.61348"
     inkscape:window-width="1920"
     inkscape:window-height="986"
     inkscape:window-x="0"
     inkscape:window-y="32"
     inkscape:window-maximized="1"
     inkscape:current-layer="svg18" />
  <defs
     id="defs4">
    <style
       id="style2">
    .img { display: none }
    .img:target { display: inline }
    </style>
  </defs>
  <g
     id="maximize"
     class="img">
    <path
       d="M10.6667 4H6.66667C5.95942 4 5.28115 4.28095 4.78105 4.78105C4.28095 5.28115 4 5.95942 4 6.66667V10.6667M28 10.6667V6.66667C28 5.95942 27.719 5.28115 27.219 4.78105C26.7189 4.28095 26.0406 4 25.3333 4H21.3333M21.3333 28H25.3333C26.0406 28 26.7189 27.719 27.219 27.219C27.719 26.7189 28 26.0406 28 25.3333V21.3333M4 21.3333V25.3333C4 26.0406 4.28095 26.7189 4.78105 27.219C5.28115 27.719 5.95942 28 6.66667 28H10.6667"
       stroke="white"
       stroke-width="3"
       stroke-linecap="round"
       stroke-linejoin="round"
       id="path6" />
  </g>
  <g
     id="minimize"
     class="img"
     transform="matrix(1.3498404,0,0,1.3498404,-0.2015082,-0.19968099)">
    <path
       d="M 16,2 C 15.487165,2 15.064494,2.3860402 15.006728,2.8833789 L 15.000028,3 v 5 c 0,0.5128358 0.386041,0.9355075 0.883379,0.9932725 l 0.116621,0.0067 h 5 c 0.552285,0 1,-0.4477154 1,-1.0000002 0,-0.5128358 -0.38604,-0.9355072 -0.883379,-0.9932723 L 21.000028,6.99997 h -3.525993 c -0.448867,0 -0.473633,-0.1089278 -0.474007,-0.4619226 V 3 c 0,-0.5128358 -0.38604,-0.9355072 -0.883379,-0.9932723 z"
       style="fill:#ffffff" />
    <path
       d="m 16.005073,22.002365 c -0.512834,0 -0.935505,-0.38604 -0.993271,-0.883379 l -0.0067,-0.116621 v -5.000001 c 0,-0.512836 0.386041,-0.935507 0.883378,-0.993272 l 0.116621,-0.0067 h 5 c 0.552285,0 1,0.447715 1,1 0,0.512836 -0.38604,0.935507 -0.883379,0.993272 l -0.116621,0.0067 h -3.525993 c -0.448867,0 -0.473633,0.108928 -0.474007,0.461923 v 3.538078 c 0,0.512836 -0.38604,0.935507 -0.883379,0.993272 z"
       style="display:inline;fill:#ffffff" />
    <path
       d="m 8,22 c 0.512834,0 0.935504,-0.38604 0.993271,-0.883379 L 8.999971,21 v -5.000001 c 0,-0.512836 -0.386041,-0.935507 -0.883378,-0.993272 l -0.116622,-0.0067 H 2.9999713 c -0.552285,0 -1,0.447715 -1,1 0,0.512836 0.386041,0.935507 0.88338,0.993272 l 0.11662,0.0067 H 6.525964 c 0.448867,0 0.473633,0.108928 0.474007,0.461923 V 21 c 0,0.512836 0.386041,0.935507 0.88338,0.993272 z"
       style="display:inline;fill:#ffffff" />
    <path
       d="M 8,2 C 8.5128358,2 8.9355072,2.3860402 8.9932723,2.8833789 L 9,3 V 8 C 9,8.5128358 8.6139598,8.9355072 8.1166211,8.9932723 L 8,9 H 3 C 2.4477153,9 2,8.5522848 2,8 2,7.4871642 2.3860402,7.0644928 2.8833789,7.0067277 L 3,7 H 6.5259931 C 6.9748604,7 6.999626,6.8910722 7,6.5380774 V 3 C 7,2.4871642 7.3860402,2.0644928 7.8833789,2.0067277 Z"
       style="fill:#ffffff" />
  </g>
</svg>
