<svg viewBox="0 0 56 56" fill="none" xmlns="http://www.w3.org/2000/svg">
<defs>
    <style>
    .img { display: none }
    .img:target { display: inline }
    </style>
</defs>
<g id="play" class="img">
    <path d="M11.6667 7L44.3333 28L11.6667 49V7Z" stroke="white" stroke-width="4" stroke-linecap="round" stroke-linejoin="round"/>
</g>
<g id="pause" class="img">
  <path
     fill="#ffffff"
     d="m 19.544119,5 c 2.428427,0 4.397056,1.9686303 4.397056,4.3970592 V 46.602941 C 23.941175,49.03137 21.972546,51 19.544119,51 H 12.102942 C 9.6745126,51 7.7058825,49.03137 7.7058825,46.602941 V 9.3970592 C 7.7058825,6.9686303 9.6745126,5 12.102942,5 Z m 24.352939,0 c 2.428429,0 4.397059,1.9686303 4.397059,4.3970592 V 46.602941 C 48.294117,49.03137 46.325487,51 43.897058,51 h -7.441175 c -2.42843,0 -4.39706,-1.96863 -4.39706,-4.397059 V 9.3970592 C 32.058823,6.9686303 34.027453,5 36.455883,5 Z M 19.544119,8.3823531 h -7.441177 c -0.560407,0 -1.014706,0.4542993 -1.014706,1.0147061 V 46.602941 c 0,0.560406 0.454299,1.014706 1.014706,1.014706 h 7.441177 c 0.560405,0 1.014705,-0.4543 1.014705,-1.014706 V 9.3970592 c 0,-0.5604068 -0.4543,-1.0147061 -1.014705,-1.0147061 z m 24.352939,0 h -7.441175 c -0.560407,0 -1.014707,0.4542993 -1.014707,1.0147061 V 46.602941 c 0,0.560406 0.4543,1.014706 1.014707,1.014706 h 7.441175 c 0.560406,0 1.014706,-0.4543 1.014706,-1.014706 V 9.3970592 c 0,-0.5604068 -0.4543,-1.0147061 -1.014706,-1.0147061 z"
     style="fill:#ffffff;stroke-width:1.35294" />
</g>

</svg>
